<?xml version="1.0" encoding="iso-8859-1"?>
<!-- Generator: Adobe Illustrator 23.1.1, SVG Export Plug-In . SVG Version: 6.00 Build 0)  -->
<svg version="1.1" id="_x31_-outline-expand" xmlns="http://www.w3.org/2000/svg" xmlns:xlink="http://www.w3.org/1999/xlink"
	 x="0px" y="0px" viewBox="0 0 64 64" style="enable-background:new 0 0 64 64;" xml:space="preserve">
<path style="fill:#D36767;" d="M53,32c0,11.598-9.402,21-21,21s-21-9.402-21-21c0-11.598,9.402-21,21-21S53,20.402,53,32"/>
<path style="fill:#62C4C3;" d="M34,5c0,1.104-0.896,2-2,2c-1.104,0-2-0.896-2-2c0-1.104,0.896-2,2-2C33.104,3,34,3.896,34,5"/>
<path style="fill:#62C4C3;" d="M9.617,16.768c0.957,0.552,1.285,1.775,0.732,2.732c-0.552,0.956-1.775,1.284-2.732,0.732
	S6.333,18.456,6.885,17.5C7.437,16.543,8.66,16.216,9.617,16.768"/>
<path style="fill:#62C4C3;" d="M7.617,43.768c0.957-0.552,2.18-0.225,2.732,0.732c0.553,0.956,0.225,2.18-0.732,2.732
	s-2.18,0.224-2.732-0.732C6.333,45.543,6.66,44.32,7.617,43.768"/>
<path style="fill:#62C4C3;" d="M30,59c0-1.104,0.896-2,2-2s2,0.896,2,2c0,1.104-0.896,2-2,2S30,60.104,30,59"/>
<path style="fill:#62C4C3;" d="M54.383,47.232c-0.957-0.552-1.285-1.775-0.732-2.732c0.552-0.956,1.775-1.284,2.732-0.732
	c0.957,0.552,1.284,1.776,0.732,2.732C56.563,47.457,55.34,47.784,54.383,47.232"/>
<path style="fill:#62C4C3;" d="M56.383,20.232c-0.957,0.552-2.18,0.225-2.732-0.732c-0.553-0.956-0.225-2.18,0.732-2.732
	c0.957-0.552,2.18-0.224,2.732,0.732C57.667,18.457,57.34,19.68,56.383,20.232"/>
<path style="fill:#EFBC2E;" d="M44,32.001c-0.382,0-0.747-0.22-0.913-0.591c-0.473-1.056,0.257-2.018,0.791-2.72
	c0.205-0.27,0.63-0.83,0.616-1.015c-0.136-0.033-0.78,0.154-1.123,0.253c-0.83,0.24-1.969,0.568-2.728-0.259
	c-0.767-0.737-0.415-1.837-0.134-2.72c0.088-0.274,0.238-0.744,0.256-1.002c-0.19,0.112-0.596,0.43-0.83,0.614
	c-0.724,0.567-1.626,1.275-2.621,0.786c-0.98-0.413-1.022-1.613-1.052-2.489c-0.01-0.268-0.025-0.716-0.083-0.972
	c-0.132,0.186-0.381,0.589-0.527,0.827c-0.484,0.787-1.082,1.768-2.189,1.642c-1.059-0.059-1.485-1.126-1.828-1.984
	c-0.1-0.25-0.268-0.671-0.41-0.894c-0.058,0.217-0.153,0.672-0.209,0.941c-0.189,0.905-0.424,2.032-1.513,2.284
	c-1.008,0.296-1.774-0.562-2.389-1.25c-0.186-0.209-0.5-0.561-0.714-0.719c0.014,0.222,0.08,0.696,0.12,0.974
	c0.128,0.918,0.288,2.06-0.648,2.676c-0.846,0.634-1.86,0.107-2.675-0.316c-0.27-0.139-0.741-0.383-0.987-0.43
	c0.047,0.216,0.302,0.703,0.446,0.98c0.43,0.823,0.964,1.848,0.314,2.776c-0.558,0.913-1.733,0.832-2.591,0.774
	c-0.405-0.028-1.161-0.078-1.238,0.093c-0.225,0.504-0.818,0.729-1.32,0.506c-0.505-0.225-0.731-0.816-0.506-1.321
	c0.645-1.448,2.244-1.339,3.2-1.274c0.207,0.015,0.486,0.034,0.687,0.029c-0.082-0.203-0.223-0.473-0.319-0.657
	c-0.463-0.889-1.163-2.23-0.152-3.33c1.123-1.092,2.54-0.359,3.386,0.079c0.144,0.074,0.327,0.169,0.49,0.244
	c-0.016-0.181-0.045-0.388-0.068-0.552c-0.14-0.995-0.35-2.499,0.979-3.151c1.405-0.599,2.419,0.536,3.089,1.288
	c0.101,0.112,0.226,0.253,0.343,0.375c0.041-0.162,0.078-0.342,0.108-0.487c0.206-0.983,0.516-2.468,1.982-2.63
	c1.523-0.098,2.08,1.318,2.453,2.25c0.054,0.137,0.122,0.306,0.189,0.457c0.093-0.139,0.189-0.295,0.267-0.421
	c0.526-0.856,1.32-2.152,2.755-1.818c1.469,0.42,1.524,1.998,1.557,2.941c0.005,0.153,0.011,0.344,0.025,0.516
	c0.14-0.102,0.293-0.221,0.415-0.317c0.796-0.624,1.998-1.567,3.241-0.748c1.239,0.915,0.778,2.361,0.473,3.318
	c-0.058,0.179-0.132,0.412-0.18,0.605c0.186-0.042,0.41-0.106,0.582-0.156c0.918-0.264,2.454-0.708,3.341,0.56
	c0.828,1.339-0.084,2.539-0.687,3.334c-0.175,0.229-0.457,0.601-0.524,0.782c0.163,0.482-0.064,1.018-0.538,1.231
	C44.276,31.973,44.137,32.001,44,32.001"/>
<path style="fill:#3A4249;" d="M56.882,42.902c-1.127-0.651-2.499-0.475-3.438,0.324l-1.919-1.108
	c1.094-2.101,1.862-4.398,2.227-6.826l3.006,0.316l0.209-1.989l-3.01-0.317C53.983,32.871,54,32.437,54,32
	c0-0.438-0.016-0.871-0.042-1.302l3.01-0.317l-0.209-1.989l-3.006,0.316c-0.365-2.428-1.133-4.725-2.227-6.826l1.927-1.112
	c0.546,0.462,1.229,0.73,1.935,0.73c0.509,0,1.024-0.13,1.495-0.402c1.433-0.827,1.926-2.665,1.098-4.098
	c-0.827-1.433-2.665-1.924-4.098-1.098c-0.694,0.401-1.19,1.048-1.398,1.822c-0.117,0.438-0.123,0.885-0.043,1.319l-1.92,1.108
	c-1.302-2.028-2.926-3.83-4.803-5.331l1.785-2.458l-1.618-1.175l-1.783,2.454c-0.723-0.478-1.475-0.913-2.253-1.304l1.232-2.769
	l-1.827-0.814l-1.232,2.767c-2.192-0.862-4.554-1.384-7.023-1.496V7.816C34.161,7.401,35,6.302,35,5c0-1.654-1.345-3-3-3
	c-1.654,0-3,1.346-3,3c0,1.302,0.839,2.401,2,2.815v2.21c-2.468,0.112-4.83,0.634-7.022,1.496l-1.232-2.767l-1.828,0.814
	l1.233,2.769c-0.778,0.391-1.53,0.826-2.253,1.304l-1.783-2.454l-1.618,1.175l1.785,2.458c-1.877,1.501-3.501,3.303-4.804,5.331
	l-1.919-1.108c0.08-0.434,0.074-0.881-0.043-1.319c-0.208-0.774-0.705-1.421-1.398-1.822C8.686,15.076,6.847,15.567,6.02,17
	c-0.828,1.433-0.335,3.271,1.098,4.098C7.589,21.37,8.104,21.5,8.612,21.5c0.706,0,1.389-0.268,1.935-0.73l1.927,1.112
	c-1.094,2.101-1.862,4.398-2.227,6.826l-3.006-0.316l-0.209,1.989l3.009,0.317C10.017,31.129,10,31.562,10,32
	c0,0.437,0.017,0.871,0.042,1.302l-3.009,0.317l0.209,1.989l3.006-0.316c0.365,2.428,1.133,4.725,2.227,6.826l-1.919,1.108
	c-0.94-0.799-2.312-0.975-3.438-0.324C5.685,43.729,5.192,45.567,6.02,47c0.555,0.961,1.565,1.5,2.603,1.5
	c0.508,0,1.023-0.13,1.495-0.402c0.693-0.401,1.19-1.048,1.398-1.822c0.117-0.438,0.123-0.885,0.043-1.319l1.919-1.108
	c1.303,2.028,2.927,3.83,4.804,5.331l-1.785,2.458l1.618,1.175l1.783-2.454c0.723,0.478,1.475,0.913,2.253,1.304l-1.233,2.769
	l1.828,0.814l1.232-2.767c2.192,0.862,4.554,1.384,7.022,1.496v2.209c-1.161,0.415-2,1.514-2,2.816c0,1.654,1.346,3,3,3
	c1.655,0,3-1.346,3-3c0-1.302-0.838-2.401-2-2.816v-2.209c2.469-0.112,4.831-0.634,7.023-1.496l1.232,2.767l1.827-0.814
	l-1.232-2.769c0.778-0.391,1.53-0.826,2.253-1.304l1.783,2.454l1.618-1.175l-1.785-2.458c1.877-1.501,3.501-3.303,4.803-5.331
	l1.92,1.108c-0.08,0.434-0.074,0.881,0.043,1.319c0.208,0.774,0.704,1.421,1.398,1.822c0.471,0.272,0.987,0.402,1.495,0.402
	c1.038,0,2.048-0.539,2.603-1.5C58.808,45.567,58.315,43.729,56.882,42.902 M54.417,18.241c0.069-0.258,0.235-0.473,0.466-0.607
	c0.158-0.091,0.329-0.134,0.499-0.134c0.346,0,0.682,0.18,0.867,0.5c0.276,0.478,0.112,1.09-0.366,1.366
	c-0.477,0.277-1.09,0.112-1.366-0.366C54.383,18.769,54.347,18.499,54.417,18.241 M9.483,19c-0.275,0.478-0.889,0.641-1.365,0.366
	C7.639,19.09,7.476,18.478,7.751,18c0.184-0.32,0.521-0.5,0.867-0.5c0.17,0,0.341,0.043,0.499,0.134
	c0.231,0.134,0.397,0.349,0.465,0.607C9.653,18.499,9.617,18.769,9.483,19 M9.583,45.759c-0.068,0.258-0.234,0.473-0.465,0.607
	C8.639,46.64,8.027,46.478,7.751,46c-0.276-0.478-0.112-1.09,0.366-1.366C8.275,44.543,8.445,44.5,8.616,44.5
	c0.346,0,0.683,0.18,0.868,0.5C9.617,45.231,9.653,45.501,9.583,45.759 M32,4c0.552,0,1,0.449,1,1c0,0.551-0.448,1-1,1
	c-0.551,0-1-0.449-1-1C31,4.449,31.449,4,32,4 M32,60c-0.551,0-1-0.449-1-1c0-0.551,0.449-1,1-1c0.552,0,1,0.449,1,1
	C33,59.551,32.551,60,32,60 M44.54,47.558l-1.738-2.392l-1.618,1.175l1.738,2.392c-0.608,0.398-1.241,0.758-1.892,1.089
	l-1.201-2.698L38,47.937l1.202,2.7c-1.941,0.753-4.025,1.204-6.203,1.312V49h-2v2.949c-2.177-0.108-4.261-0.559-6.202-1.312
	l1.201-2.7l-1.827-0.813l-1.201,2.698c-0.651-0.331-1.284-0.691-1.892-1.089l1.738-2.392l-1.618-1.175l-1.738,2.392
	c-1.652-1.334-3.083-2.927-4.241-4.715l2.558-1.477l-1-1.732l-2.56,1.477c-0.957-1.861-1.622-3.89-1.955-6.031l2.935-0.309
	l-0.209-1.989l-2.933,0.309C12.035,32.728,12,32.368,12,32c0-0.368,0.036-0.728,0.056-1.091l2.933,0.309l0.209-1.989l-2.935-0.309
	c0.333-2.141,0.998-4.17,1.955-6.031l2.56,1.477l1-1.732l-2.558-1.477c1.158-1.788,2.589-3.381,4.241-4.715l1.738,2.392l1.618-1.175
	l-1.738-2.392c0.608-0.398,1.241-0.758,1.892-1.089l1.201,2.698l1.827-0.813l-1.201-2.7c1.941-0.753,4.025-1.204,6.202-1.312V15h2
	v-2.949c2.178,0.108,4.262,0.559,6.203,1.312L38,16.063l1.828,0.813l1.201-2.698c0.651,0.331,1.284,0.691,1.892,1.089l-1.738,2.392
	l1.618,1.175l1.738-2.392c1.652,1.334,3.083,2.927,4.241,4.715l-2.558,1.477l1,1.732l2.56-1.477c0.957,1.861,1.622,3.89,1.955,6.031
	l-2.935,0.309l0.209,1.989l2.933-0.309C51.965,31.272,52,31.632,52,32c0,0.368-0.035,0.728-0.055,1.091l-2.933-0.309l-0.209,1.989
	l2.935,0.309c-0.333,2.141-0.998,4.17-1.955,6.031l-2.56-1.477l-1,1.732l2.558,1.477C47.622,44.631,46.191,46.224,44.54,47.558
	 M56.249,46c-0.276,0.478-0.889,0.64-1.366,0.366c-0.231-0.134-0.397-0.349-0.466-0.607c-0.069-0.258-0.033-0.528,0.101-0.759
	c0.184-0.32,0.521-0.5,0.867-0.5c0.17,0,0.341,0.043,0.498,0.134C56.361,44.91,56.524,45.522,56.249,46"/>
</svg>
